<svg xmlns="http://www.w3.org/2000/svg" width="269.045" height="362.031" viewBox="0 0 269.045 362.031">
  <g id="Group_75" data-name="Group 75" transform="translate(-238.999 -205.968)">
    <g id="Group_74" data-name="Group 74">
      <path id="Path_55" data-name="Path 55" d="M239,229.956s70.669-49.971,189.436-5.664c0,0-14.972,89.509,51.15,100.091,0,0,29.736.493,28.416-49.1V568L464.43,367.817s-36.4-24.248-47.359-120.862c0,0-15.477,66.317,43.571,130.3,0,0-38.048-21.927-66.3-5.664,0,0-2.9-95.245,18.944-130.307,0,0-29.719,19.137-32.207,117.087,0,0-17.61-39.722-56.831-41.547,0,0,18.153-46.317,75.775-81.2,0,0-34.481,1.418-85.246,66.1,0,0-5.226-53.3-75.775-71.766Z" fill="#202022" fill-rule="evenodd"/>
    </g>
  </g>
</svg>
