<svg xmlns="http://www.w3.org/2000/svg" width="269.012" height="361.998" viewBox="0 0 269.012 361.998">
  <g id="Group_75" data-name="Group 75" transform="translate(-685.989 -206.001)">
    <g id="Group_74" data-name="Group 74">
      <path id="Path_55" data-name="Path 55" d="M955,229.986s-70.661-49.966-189.414-5.664c0,0,14.969,89.5-51.143,100.083,0,0-29.735.493-28.412-49.1V568L729.6,367.834s36.393-24.246,47.354-120.851c0,0,15.474,66.311-43.566,130.3,0,0,38.043-21.927,66.295-5.667,0,0,2.905-95.234-18.941-130.293,0,0,29.714,19.135,32.2,117.077,0,0,17.607-39.72,56.823-41.542,0,0-18.148-46.318-75.767-81.2,0,0,34.481,1.415,85.239,66.09,0,0,5.225-53.294,75.766-71.758Z" fill="#202022" fill-rule="evenodd"/>
    </g>
  </g>
</svg>
