<svg xmlns="http://www.w3.org/2000/svg" width="42.001" height="42.001" viewBox="0 0 42.001 42.001">
  <g id="Group_74" data-name="Group 74" transform="translate(-178 -268)">
    <path id="Path_55" data-name="Path 55" d="M254,453.039v-7.875l7.219,4.758v8.039L254,453.039Zm10.008,4.758v-8.039L271.227,445v7.875l-7.219,4.922Z" transform="translate(-63.531 -147.96)" fill="#80b9e2"/>
    <path id="Path_56" data-name="Path 56" d="M207.7,292.61v-4.922h-2.625v6.35l1.148.7L199,299.665l-7.219-4.758,1.148-.731v-6.488h-2.625v4.922H178V280.469h12.305v4.922h4.922v7.323l2.625-1.671V280.305h-5.086V268h12.469v12.305h-5.086v10.713l2.625,1.611v-7.238H207.7v-4.922H220V292.61Zm-22.149-7.383h-2.625v2.625h2.625v-2.625Zm14.766-12.3h-2.625v2.625h2.625v-2.625Zm14.766,12.3h-2.625v2.625h2.625v-2.625Z" fill="#0173c6" fill-rule="evenodd"/>
  </g>
</svg>
