<svg xmlns="http://www.w3.org/2000/svg" width="39.74" height="38.11" viewBox="0 0 39.74 38.11">
  <g id="Group_74" data-name="Group 74" transform="translate(-164.842 -260.999)">
    <path id="Path_55" data-name="Path 55" d="M171.5,271.725s-1.9-7.814,1.834-9.032l.141-1.552.564.847.847-.988v.706s7.539-1.575,9.455,3.1c0,0-5.883,1.651-5.927,9.314,0,0,.063,6.374,6.209,8.609,0,0,6.62,1.866,6.351,10.584v3.528s-4.588,2.409-13.125,2.258c0,0-11.912-.477-12.983-3.1v-2.822s-.856-8.638,8.044-11.149a1.76,1.76,0,0,1,1.27-1.693l-1.411-4.093s-.98,1.152-1.552-2.54c0,0-.4-1.651.283-1.976Z" transform="translate(0)" fill="#0173c6" fill-rule="evenodd"/>
    <path id="Path_56" data-name="Path 56" d="M295.273,317.7a2.057,2.057,0,0,1-2.822.141l-6.633-6.915a2.28,2.28,0,0,1-.565-1.976l-1.478-1.355a7.849,7.849,0,0,1-4.8,1.637,8.116,8.116,0,1,1,7.974-8.115,8.169,8.169,0,0,1-1.7,5l1.417,1.417c1.409-.211,1.835.564,1.835.564l6.774,6.774c1.091,1.871,0,2.822,0,2.822Zm-16.3-23a6.351,6.351,0,1,0,6.28,6.351,6.316,6.316,0,0,0-6.28-6.351Z" transform="translate(-91.177 -27.485)" fill="#80b9e2" fill-rule="evenodd"/>
  </g>
</svg>
