<svg xmlns="http://www.w3.org/2000/svg" width="41.481" height="41.333" viewBox="0 0 41.481 41.333">
  <g id="Group_74" data-name="Group 74" transform="translate(-80.555 -172)">
    <path id="Path_55" data-name="Path 55" d="M134.665,279.682a14.88,14.88,0,0,0-5.594,11.658.723.723,0,0,1-1.447,0,16.373,16.373,0,0,1,6.125-12.766.724.724,0,0,1,1.013.1.687.687,0,0,1,.058.07.674.674,0,0,1-.155.941Zm14.613,27.17a16.265,16.265,0,0,1-5.257.867,16.754,16.754,0,0,1-5.16-.819.771.771,0,0,1-.482-.915l.005-.017a.724.724,0,0,1,.911-.465,15.256,15.256,0,0,0,9.5,0,.723.723,0,0,1,.482,1.349ZM159.7,292.063a.723.723,0,0,1-.723-.723,14.976,14.976,0,0,0-6.318-12.188l-.009-.006a.722.722,0,0,1-.184-1.005.772.772,0,0,1,1.013-.193,16.47,16.47,0,0,1,6.945,13.392.723.723,0,0,1-.723.723Z" transform="translate(-42.726 -96.072)" fill="#80b9e2"/>
    <path id="Path_56" data-name="Path 56" d="M101.3,179.226a3.613,3.613,0,1,1,3.617-3.613,3.615,3.615,0,0,1-3.617,3.613Zm6.27,6.022v.771c0,.385-.145.819-.579.819H95.6c-.434,0-.579-.434-.579-.819v-.771c0-.017,0-.034,0-.051a5.012,5.012,0,0,1,4.92-5.1H102.7a5.013,5.013,0,0,1,4.868,5.153ZM86.827,205.722a3.613,3.613,0,1,1,3.617-3.613,3.615,3.615,0,0,1-3.617,3.613Zm6.27,6.022v.771c0,.385-.145.819-.579.819H81.136c-.434,0-.579-.433-.579-.819v-.771c0-.017,0-.034,0-.051a5.013,5.013,0,0,1,4.921-5.1h2.752a5.012,5.012,0,0,1,4.868,5.153Zm22.667-6.022a3.613,3.613,0,1,1,3.617-3.613,3.615,3.615,0,0,1-3.617,3.613Zm6.27,6.022v.771c0,.385-.145.819-.579.819H110.073c-.434,0-.579-.433-.579-.819v-.771c0-.017,0-.034,0-.051a5.013,5.013,0,0,1,4.921-5.1h2.752a5.012,5.012,0,0,1,4.868,5.153Z" fill="#0173c6"/>
  </g>
</svg>
