<svg xmlns="http://www.w3.org/2000/svg" width="40.672" height="40.45" viewBox="0 0 40.672 40.45">
  <g id="Group_74" data-name="Group 74" transform="translate(1 -92.001)">
    <path id="Path_55" data-name="Path 55" d="M30.317,100.877a4.418,4.418,0,1,1,4.418-4.417,4.417,4.417,0,0,1-4.418,4.417Zm7.968,16.737a2,2,0,0,1-2.528-1.287l-.136-.417v14.146a2.025,2.025,0,0,1-3.847.887c0-.055.016-.107.016-.163v-2.222a2.131,2.131,0,0,0,1.99-2.56l-1.372-6.67-.516-2.508a2.128,2.128,0,0,0-1.447-1.589c.019-.013.047-.011.062-.029l1.54-1.844a1.069,1.069,0,0,0,.232-.863l-1.063-6.2-.166-.966a.177.177,0,0,0-.174-.147H29.756a.177.177,0,0,0-.174.147l-.165.966-1.063,6.2a1.069,1.069,0,0,0,.232.863L30.1,115.17a2.037,2.037,0,0,0-.291-.051H25.9V113.2l-.626,1.923H21.059c0-.011,0-.022.007-.033l3.406-10.469v0a3.376,3.376,0,0,1,3.218-2.337h5.259a3.376,3.376,0,0,1,3.218,2.337l3.405,10.471a2.005,2.005,0,0,1-1.287,2.528ZM31.031,103a.177.177,0,0,0-.177-.177H29.808a.177.177,0,0,0-.177.177v1.231a.177.177,0,0,0,.177.177h1.046a.177.177,0,0,0,.177-.177V103ZM19.562,94.43a.771.771,0,0,1-.97.547,4.307,4.307,0,0,0-1.256-.182c-.909,0-1.2.39-1.2.782,0,.461.489.754,1.676,1.2,1.663.587,2.334,1.354,2.334,2.612a2.678,2.678,0,0,1-2.487,2.585v.741a.685.685,0,0,1-1.369,0v-.643a6.465,6.465,0,0,1-1.6-.276.872.872,0,0,1-.585-1.048l.013-.052a.753.753,0,0,1,.978-.522,4.727,4.727,0,0,0,1.562.278c.8,0,1.341-.308,1.341-.867,0-.53-.447-.866-1.482-1.215-1.495-.5-2.514-1.2-2.514-2.558a2.581,2.581,0,0,1,2.361-2.487v-.643a.685.685,0,0,1,1.37,0v.545a5.931,5.931,0,0,1,1.287.187.793.793,0,0,1,.562.962l-.013.051Zm2.17,12.087M10.09,128.453v2.326a1.672,1.672,0,1,1-3.343,0V125.6H5.818A6.826,6.826,0,0,1-1,118.782v-6.465a1.672,1.672,0,1,1,3.343,0v6.465a3.479,3.479,0,0,0,3.475,3.475h2.6a1.629,1.629,0,0,1,.945.33l-.726,3.4a2.106,2.106,0,0,0,1.453,2.469ZM32.31,126.93a.792.792,0,0,1-.614.292H30.454v3.557a1.337,1.337,0,1,1-2.675,0v-3.557H14.715v3.557a1.337,1.337,0,1,1-2.675,0v-3.557H10.72a.793.793,0,0,1-.775-.959l1.961-9.18a.792.792,0,0,1,.775-.628H29.807a.793.793,0,0,1,.777.634l1.888,9.18a.792.792,0,0,1-.162.661Z" transform="translate(0 0)" fill="#0173c6"/>
    <path id="Path_56" data-name="Path 56" d="M84.2,292.969h0l-1.3,4.012a.56.56,0,0,1-.092.164,2.663,2.663,0,0,0-1.274-2.765,1.669,1.669,0,0,1-.357,2.31l-4.091,3.043a1.671,1.671,0,0,1-1.5.253l-2.136-.675-1.05-.332v3.55h.989a2.088,2.088,0,0,0-.318.728l-.853,3.993H68.435a2.361,2.361,0,0,1-2.361-2.361c0-.1,0-8.682,0-8.682a3.093,3.093,0,0,1,3.162-3.019,3.134,3.134,0,0,1,3.045,2.246l3.5,1.1,3.4-2.533a1.581,1.581,0,0,1,.282-.133,1.636,1.636,0,0,1,1.413-.02l.578-1.78a.571.571,0,0,1,.543-.395.583.583,0,0,1,.176.027l1.663.541a.571.571,0,0,1,.367.72" transform="translate(-62.619 -186.417)" fill="#80b9e2"/>
    <path id="Path_57" data-name="Path 57" d="M57.4,194.486a3.955,3.955,0,1,1,3.954-3.955,3.955,3.955,0,0,1-3.954,3.955Z" transform="translate(-50.83 -88.294)" fill="#80b9e2"/>
  </g>
</svg>
