<svg xmlns="http://www.w3.org/2000/svg" width="34.032" height="38.896" viewBox="0 0 34.032 38.896">
  <g id="Group_75" data-name="Group 75" transform="translate(16 -193)">
    <g id="Group_74" data-name="Group 74" transform="translate(-16 193)">
      <path id="Path_55" data-name="Path 55" d="M175.49,176.6a3.245,3.245,0,0,1-3.219-3.241V162.53a.647.647,0,0,0-.778-.635,9.807,9.807,0,1,1,0-19.211.647.647,0,0,0,.778-.635v-.456A2.593,2.593,0,0,0,169.678,139H148.609a2.593,2.593,0,0,0-2.593,2.593v31.765a4.538,4.538,0,0,0,4.538,4.538h24.959a.648.648,0,0,0,.646-.7.665.665,0,0,0-.668-.6Zm-23.154-28.119h5.51a.648.648,0,1,1,0,1.3h-5.51a.648.648,0,0,1,0-1.3Zm0,7.293h5.51a.648.648,0,1,1,0,1.3h-5.51a.648.648,0,0,1,0-1.3Zm13.614,15.4H152.337a.648.648,0,0,1,0-1.3H165.95a.648.648,0,0,1,0,1.3Zm0-6.807H152.337a.648.648,0,0,1,0-1.3H165.95a.648.648,0,0,1,0,1.3Zm14.1,8.021a3.239,3.239,0,1,1-6.478,0c0-5.988,0-8.321,0-9.244a.648.648,0,0,1,.648-.645h3.239a2.593,2.593,0,0,1,2.58,2.335Z" transform="translate(-146.016 -139)" fill="#0173c6"/>
      <circle id="Ellipse_1" data-name="Ellipse 1" cx="8.509" cy="8.509" r="8.509" transform="translate(14.763 4.781)" fill="#80b9e2"/>
      <path id="Path_56" data-name="Path 56" d="M430.64,262.064v.263a1.948,1.948,0,0,1-1.54,1.9v.205a.648.648,0,0,1-1.3,0v-.379a1.947,1.947,0,0,1-1.054-1.728.648.648,0,1,1,1.3,0,.648.648,0,1,0,1.3,0v-.263a.645.645,0,0,0-.455-.618l-.773-.242a1.937,1.937,0,0,1-1.364-1.857v-.262a1.947,1.947,0,0,1,1.3-1.833v-.273a.648.648,0,1,1,1.3,0v.273a1.948,1.948,0,0,1,1.3,1.833.648.648,0,0,1-1.3,0,.648.648,0,1,0-1.3,0v.262a.645.645,0,0,0,.454.619l.773.242A1.937,1.937,0,0,1,430.64,262.064Z" transform="translate(-405.423 -247.416)" fill="#fff"/>
    </g>
  </g>
</svg>
