<svg xmlns="http://www.w3.org/2000/svg" width="36" height="36" viewBox="0 0 36 36">
  <g id="Group_74" data-name="Group 74" transform="translate(-49 -140)">
    <path id="Path_55" data-name="Path 55" d="M423.466,260.9a4.207,4.207,0,0,1,1.249.189l3.6-3.6-1.677-1.677L421.55,260.9Z" transform="translate(-346.355 -107.674)" fill="#80b9e2"/>
    <path id="Path_56" data-name="Path 56" d="M496.805,301.815l-.932-.931-3.259,3.259a4.2,4.2,0,0,1,1.138,2.878v.83l3.052-3.052a2.109,2.109,0,0,0,0-2.983Z" transform="translate(-412.423 -149.572)" fill="#80b9e2"/>
    <path id="Path_57" data-name="Path 57" d="M186.692,146.652l-6.034-6.034a2.109,2.109,0,0,0-2.983,0L165.062,153.23h15.051Z" transform="translate(-107.901)" fill="#80b9e2"/>
    <path id="Path_58" data-name="Path 58" d="M127.734,453.264h3.213v2.372h-3.213Z" transform="translate(-73.198 -291.238)" fill="#0173c6"/>
    <path id="Path_59" data-name="Path 59" d="M77.111,358.167h-26A2.109,2.109,0,0,0,49,360.276v16.441a2.109,2.109,0,0,0,2.109,2.109h26a2.109,2.109,0,0,0,2.109-2.109V360.276A2.109,2.109,0,0,0,77.111,358.167Zm-24.685,4.577h7.432v6.591H52.427Zm4.1,11.506H52.361v-2.109H56.53Zm6.443,0H58.8v-2.109h4.169Zm6.443,0H65.247v-2.109h4.169Zm6.443,0H71.69v-2.109H75.86Z" transform="translate(0 -202.827)" fill="#0173c6"/>
  </g>
</svg>
