<svg xmlns="http://www.w3.org/2000/svg" width="33.137" height="43.333" viewBox="0 0 33.137 43.333">
  <g id="Group_76" data-name="Group 76" transform="translate(272 -428)">
    <g id="Group_74" data-name="Group 74" transform="translate(-272 428)">
      <path id="Path_55" data-name="Path 55" d="M-241.623,471.333h-27.615A2.74,2.74,0,0,1-272,468.625V430.707A2.742,2.742,0,0,1-269.238,428h16.569v10.833a2.736,2.736,0,0,0,2.761,2.707h11.046v27.087A2.735,2.735,0,0,1-241.623,471.333Zm-19.33-32.5a3.187,3.187,0,0,1,1.973.637,1.4,1.4,0,0,0,1.944-.192,1.336,1.336,0,0,0,.306-1,1.336,1.336,0,0,0-.506-.913,5.754,5.754,0,0,0-2.335-1.079v-1.529a1.369,1.369,0,0,0-1.382-1.352,1.366,1.366,0,0,0-.971.39,1.366,1.366,0,0,0-.41.962v1.522a4.936,4.936,0,0,0-4.142,4.573c0,2.614,2.478,4.74,5.524,4.74,1.495,0,2.761.93,2.761,2.029s-1.266,2.039-2.761,2.039a3.187,3.187,0,0,1-1.977-.644,1.4,1.4,0,0,0-1.94.192,1.336,1.336,0,0,0-.306,1,1.336,1.336,0,0,0,.506.913,5.736,5.736,0,0,0,2.335,1.079v1.529a1.369,1.369,0,0,0,1.382,1.356,1.371,1.371,0,0,0,1.382-1.356v-1.521a4.939,4.939,0,0,0,4.141-4.582c0-2.61-2.478-4.74-5.524-4.74-1.5,0-2.763-.927-2.763-2.029s1.266-2.039,2.763-2.039Zm15.188,8.125h-5.522a1.369,1.369,0,0,0-1.383,1.355,1.369,1.369,0,0,0,1.383,1.354h5.522a1.369,1.369,0,0,0,1.379-1.355,1.366,1.366,0,0,0-1.379-1.355Zm0,5.417h-5.522a1.369,1.369,0,0,0-1.383,1.355,1.37,1.37,0,0,0,1.383,1.356h5.522a1.369,1.369,0,0,0,1.379-1.356A1.369,1.369,0,0,0-245.766,452.375Zm2.549,6.373h-23.367a1.37,1.37,0,0,0-1.382,1.355,1.367,1.367,0,0,0,1.382,1.352h23.366a1.368,1.368,0,0,0,1.382-1.352,1.37,1.37,0,0,0-1.382-1.355Zm0,5.1h-23.367a1.369,1.369,0,0,0-1.382,1.352,1.369,1.369,0,0,0,1.382,1.355h23.366a1.368,1.368,0,0,0,.972-.391,1.367,1.367,0,0,0,.41-.964,1.369,1.369,0,0,0-1.382-1.352Z" transform="translate(272 -428)" fill="#0173c6" fill-rule="evenodd"/>
    </g>
    <g id="Group_75" data-name="Group 75" transform="translate(-249.91 428)">
      <path id="Path_56" data-name="Path 56" d="M-254.668,428v10.833h11.047Z" transform="translate(254.668 -428)" fill="#80b9e2"/>
    </g>
  </g>
</svg>
