<svg xmlns="http://www.w3.org/2000/svg" width="35" height="35" viewBox="0 0 35 35">
  <g id="Group_74" data-name="Group 74" transform="translate(-239.5 -238.5)">
    <path id="Union_1" data-name="Union 1" d="M274.5,258.892v-5.784l-4.745-.935a13.191,13.191,0,0,0-1.032-2.484l2.647-3.971-4.088-4.089-3.972,2.648a13.2,13.2,0,0,0-2.484-1.033l-.934-4.744h-5.784l-.934,4.744a13.2,13.2,0,0,0-2.485,1.033l-3.971-2.648-4.089,4.089,2.648,3.971a13.127,13.127,0,0,0-1.032,2.484l-4.745.935v5.783l4.745.934a13.109,13.109,0,0,0,1.032,2.485l-2.648,3.972,4.089,4.088,3.971-2.648a13.137,13.137,0,0,0,2.485,1.033l.934,4.745h5.784l.934-4.745a13.128,13.128,0,0,0,2.484-1.033l3.972,2.648,4.088-4.089-2.647-3.971a13.173,13.173,0,0,0,1.032-2.485Zm-17.5,5.6A8.489,8.489,0,1,1,265.488,256,8.5,8.5,0,0,1,257,264.488Z" fill="#0173c6"/>
    <path id="Path_56" data-name="Path 56" d="M257,250.873A5.127,5.127,0,1,0,262.127,256,5.133,5.133,0,0,0,257,250.873Z" fill="#80b9e2"/>
  </g>
</svg>
