<svg xmlns="http://www.w3.org/2000/svg" width="42" height="42" viewBox="0 0 42 42">
  <g id="Group_75" data-name="Group 75" transform="translate(-430.458 -306.417)">
    <g id="Group_74" data-name="Group 74" transform="translate(430.458 306.324)">
      <path id="Path_55" data-name="Path 55" d="M273.455,5.961a.734.734,0,0,1,.734-.734h5.2a4.4,4.4,0,1,0,0-1.467h-5.2a2.2,2.2,0,0,0-2.2,2.2V9.629h1.467Zm8.8-2.2a.734.734,0,0,1,.734-.733h1.467a.733.733,0,0,1,.734.733V5.228a.733.733,0,0,1-.734.734h-1.467a.733.733,0,0,1-.734-.734Z" transform="translate(-246.13 -0.001)" fill="#80b9e2"/>
      <path id="Path_56" data-name="Path 56" d="M14.674,340.853a.733.733,0,0,1-.733.734H8.74a4.4,4.4,0,1,0,0,1.467h5.2a2.2,2.2,0,0,0,2.2-2.2v-4.358H14.674Zm-8.8,2.2a.733.733,0,0,1-.733.733H3.672a.733.733,0,0,1-.733-.733v-1.467a.734.734,0,0,1,.733-.734H5.139a.733.733,0,0,1,.733.734Z" transform="translate(0 -304.629)" fill="#80b9e2"/>
      <path id="Path_57" data-name="Path 57" d="M4.405,8.895A4.405,4.405,0,0,0,8.74,5.227h5.2a.733.733,0,0,1,.733.734V9.628h1.467V5.961a2.2,2.2,0,0,0-2.2-2.2H8.74A4.4,4.4,0,1,0,4.405,8.895ZM2.938,3.76a.733.733,0,0,1,.733-.733H5.139a.733.733,0,0,1,.733.733V5.227a.733.733,0,0,1-.733.734H3.672a.733.733,0,0,1-.733-.734Z" transform="translate(0 0)" fill="#80b9e2"/>
      <path id="Path_58" data-name="Path 58" d="M238.6,183.159V173.53l-6.281,3.426a2.172,2.172,0,0,1-.321.126V187.2l6.219-3.393A.733.733,0,0,0,238.6,183.159Z" transform="translate(-210.156 -156.996)" fill="#0173c6"/>
      <path id="Path_59" data-name="Path 59" d="M159.609,122.383a.732.732,0,0,0-.7,0l-6.185,3.374,6.185,3.374a.733.733,0,0,0,.7,0l6.186-3.374Z" transform="translate(-138.258 -110.691)" fill="#0173c6"/>
      <path id="Path_60" data-name="Path 60" d="M144.016,173.53v9.629a.734.734,0,0,0,.382.644l6.219,3.393V177.083a2.2,2.2,0,0,1-.32-.126Z" transform="translate(-130.458 -156.996)" fill="#0173c6"/>
      <path id="Path_61" data-name="Path 61" d="M283.724,337.49a4.406,4.406,0,0,0-4.335,3.667h-5.2a.733.733,0,0,1-.734-.733v-4.4h-1.467v4.4a2.2,2.2,0,0,0,2.2,2.2h5.2a4.4,4.4,0,1,0,4.335-5.135Zm1.467,5.135a.733.733,0,0,1-.734.733h-1.467a.733.733,0,0,1-.734-.733v-1.467a.734.734,0,0,1,.734-.733h1.467a.733.733,0,0,1,.734.733Z" transform="translate(-246.13 -304.2)" fill="#80b9e2"/>
    </g>
  </g>
</svg>
