<svg xmlns="http://www.w3.org/2000/svg" width="40" height="40" viewBox="0 0 40 40">
  <g id="Group_75" data-name="Group 75" transform="translate(-195 -70)">
    <g id="Group_74" data-name="Group 74" transform="translate(195 70)">
      <path id="Path_55" data-name="Path 55" d="M5.064,75.3.1,80.266H5.064Z" transform="translate(-0.092 -69.419)" fill="#80b9e2"/>
      <path id="Path_56" data-name="Path 56" d="M186.174,5.063H181.21L186.174.1Z" transform="translate(-167.053 -0.092)" fill="#0e7ac9"/>
      <path id="Path_57" data-name="Path 57" d="M188.426,0V7.316H181.11V34.125h25.851V0Zm13.708,22.644h-16.2V20.3h16.2Zm0-4.98h-16.2V15.32h16.2Zm0-4.979h-16.2V10.341h16.2Z" transform="translate(-166.961)" fill="#0e7ac9"/>
      <path id="Path_58" data-name="Path 58" d="M11.806,105.8v-7.95H4.827V95.5h6.978V92.866H4.827V90.523h6.978V87.887H4.827V85.543h6.978V75.2H7.315v7.315H0v26.81H25.851V105.8Z" transform="translate(0 -69.327)" fill="#80b9e2"/>
    </g>
  </g>
</svg>
