<svg xmlns="http://www.w3.org/2000/svg" width="50" height="29.59" viewBox="0 0 50 29.59">
  <g id="Group_74" data-name="Group 74" transform="translate(-1)">
    <path id="Path_55" data-name="Path 55" d="M365,3.016c4.335,1.006,5.993,3.541,8.072,7.03H365Z" transform="translate(-328.453 -2.721)" fill="#80b9e2"/>
    <path id="Path_56" data-name="Path 56" d="M11.31,7.617a1.286,1.286,0,0,1,1.465,1.367,1.465,1.465,0,0,1-1.461,1.465H2.465a1.465,1.465,0,1,0,0,2.93H15.648a1.465,1.465,0,1,1,.006,2.93H2.465a1.465,1.465,0,1,0,0,2.93H5.688v4.395A1.465,1.465,0,0,0,7.152,25.1H10.1a5.616,5.616,0,0,0,11.005,0H35.976a5.616,5.616,0,0,0,11.005,0h2.554A1.465,1.465,0,0,0,51,23.633V14.844c0-4.3-4.533-4.583-4.538-4.59H35.18a1.465,1.465,0,0,1-1.465-1.465V0H7.152A1.465,1.465,0,0,0,5.688,1.465V4.688H3.93a1.465,1.465,0,0,0,0,2.93ZM43.377,22.076a2.686,2.686,0,1,1-4.584,1.9A2.686,2.686,0,0,1,43.377,22.076Zm-25.879,0a2.686,2.686,0,1,1-4.584,1.9A2.686,2.686,0,0,1,17.5,22.076Z" fill="#0173c6"/>
  </g>
</svg>
