<svg xmlns="http://www.w3.org/2000/svg" width="40.084" height="30.376" viewBox="0 0 40.084 30.376">
  <g id="Group_74" data-name="Group 74" transform="translate(-50 -201)">
    <path id="Path_55" data-name="Path 55" d="M50,223.838V211.29a6.306,6.306,0,0,1,6.3-6.3h6.461v-.476A3.525,3.525,0,0,1,66.287,201H73.8a3.525,3.525,0,0,1,3.523,3.519v.476h6.461a6.306,6.306,0,0,1,6.3,6.3v12.549Zm24.971-19.32a1.175,1.175,0,0,0-1.174-1.173H66.287a1.175,1.175,0,0,0-1.174,1.173v.476h9.858v-.476Zm1.352,10.49a4.041,4.041,0,0,0-4.039-4.034H67.8a4.041,4.041,0,0,0-4.039,4.034v.188A4.041,4.041,0,0,0,67.8,219.23h4.485a4.041,4.041,0,0,0,4.039-4.034v-.188Z" transform="translate(0)" fill="#0173c6"/>
    <path id="Path_56" data-name="Path 56" d="M88.91,376.427H51.174A1.174,1.174,0,0,1,50,375.254v-4.02H90.084v4.02a1.174,1.174,0,0,1-1.174,1.173ZM72.285,361.935H67.8a1.691,1.691,0,0,1-1.69-1.688v-.188a1.691,1.691,0,0,1,1.69-1.688h4.485a1.691,1.691,0,0,1,1.69,1.688v.188a1.691,1.691,0,0,1-1.69,1.688Z" transform="translate(0 -145.05)" fill="#80b9e2"/>
  </g>
</svg>
