<svg xmlns="http://www.w3.org/2000/svg" width="49" height="43.083" viewBox="0 0 49 43.083">
  <g id="Group_74" data-name="Group 74" transform="translate(3 -29.594)">
    <path id="Path_55" data-name="Path 55" d="M305.628,50.208a10.307,10.307,0,1,1,7.291-17.593l-7.633,7.633-1.892-1.892a1.463,1.463,0,1,0-2.069,2.069l2.926,2.926a1.463,1.463,0,0,0,2.069,0l8.368-8.368a10.309,10.309,0,0,1-9.06,15.225Z" transform="translate(-269.937)" fill="#80b9e2"/>
    <path id="Path_56" data-name="Path 56" d="M5.892,50.534,13.2,51.6l2.432,8.57-8.624-.207-2.884-7.1L2.3,51.539a3.579,3.579,0,0,1-2.388.36A3.6,3.6,0,1,1,1.3,44.828a3.611,3.611,0,0,1,2.842,4.228q-.018.09-.04.179l1.794,1.3ZM34.213,79.67a3.365,3.365,0,1,1-3.365,3.365,3.365,3.365,0,0,1,3.365-3.365Zm-17.357,0a3.365,3.365,0,1,1-3.365,3.365,3.365,3.365,0,0,1,3.365-3.365ZM14.483,73.02l4.628-.606L16.47,63.108l-8.261-.2,3.47,8.543a4.235,4.235,0,0,0-.639.982,4.16,4.16,0,0,0,3.8,5.923H37.763a1.463,1.463,0,0,0,0-2.926H14.836a1.221,1.221,0,0,1-1.088-.592,1.208,1.208,0,0,1,.736-1.818Zm1.888-20.956,5.82.849a13.248,13.248,0,0,0,1.837,7.46l-5.335-.128-2.322-8.181ZM38.08,66.582a12.564,12.564,0,0,1-6.771,4.17l-.8-4.84a13.133,13.133,0,0,0,7.569.67ZM28.425,71.2l-1.181-7.157q-.423-.33-.816-.692l-6.9-.165,2.512,8.85Z" transform="translate(0 -13.723)" fill="#0173c6"/>
  </g>
</svg>
