<svg xmlns="http://www.w3.org/2000/svg" width="44.489" height="39.181" viewBox="0 0 44.489 39.181">
  <g id="Group_78" data-name="Group 78" transform="translate(-243.002 -342.794)">
    <g id="Group_77" data-name="Group 77" transform="translate(243.002 342.794)">
      <g id="Group_76" data-name="Group 76" transform="translate(0 0)">
        <g id="Group_75" data-name="Group 75">
          <g id="Group_74" data-name="Group 74">
            <path id="Path_55" data-name="Path 55" d="M260.875,350.565a13.63,13.63,0,0,0-5.85,4.3,15.066,15.066,0,0,0-2.512,8.7h6.747a2.157,2.157,0,0,1,2.154,2.148v14.07a2.157,2.157,0,0,1-2.154,2.148H245.155A2.157,2.157,0,0,1,243,379.778V368.788a44.861,44.861,0,0,1,1.435-12.6,18.707,18.707,0,0,1,5.2-8.2,24.734,24.734,0,0,1,7.752-5.012,2.148,2.148,0,0,1,2.8,1.038l1.759,3.688a2.132,2.132,0,0,1-1.077,2.865Z" transform="translate(-243.002 -342.794)" fill="#0173c6"/>
          </g>
        </g>
      </g>
    </g>
    <path id="Path_56" data-name="Path 56" d="M331.65,350.765a13.63,13.63,0,0,0-5.85,4.3,15.067,15.067,0,0,0-2.512,8.7h6.783a2.157,2.157,0,0,1,2.154,2.148v14.07a2.157,2.157,0,0,1-2.154,2.148h-14.1a2.157,2.157,0,0,1-2.153-2.148V368.988a44.264,44.264,0,0,1,1.4-12.567,19.1,19.1,0,0,1,5.24-8.234,26.011,26.011,0,0,1,7.716-4.976,2.148,2.148,0,0,1,2.8,1.038l1.759,3.652a2.132,2.132,0,0,1-1.077,2.865Z" transform="translate(-45.437 -0.151)" fill="#80b9e2"/>
  </g>
</svg>
