<svg xmlns="http://www.w3.org/2000/svg" width="40.668" height="40.668" viewBox="0 0 40.668 40.668">
  <g id="Group_74" data-name="Group 74" transform="translate(-17.001 -118.001)">
    <path id="Path_55" data-name="Path 55" d="M97.4,166.937H79.044s-1.024.192-1.024-.8v-3.438H98.353v3.511s.146.676-.951.731ZM74.435,128.647a3.532,3.532,0,0,0-.4-1.646H81.75v2.926H74.2a3.537,3.537,0,0,0,.239-1.28Zm-3.547,3.548a3.559,3.559,0,0,0,.463-.031l-2.808,9.864a4.069,4.069,0,0,0-2.044-.544,4.163,4.163,0,0,0-.655.053l.034-.126L68.654,131.4a3.533,3.533,0,0,0,2.234.793ZM67.78,148.667l.073,13.954H65V148.589a4.134,4.134,0,0,0,2.78.078Z" transform="translate(-44.488 -8.342)" fill="#80b9e2" fill-rule="evenodd"/>
    <path id="Path_56" data-name="Path 56" d="M56.206,152.89a1.463,1.463,0,1,1,1.463-1.463,1.463,1.463,0,0,1-1.463,1.463Zm-5.647,0a2.266,2.266,0,0,0,.124-2.926h2.881a2.575,2.575,0,0,0,.054,2.926Zm1.99-11.63a.67.67,0,0,1-.732-.658v-.951c-2.926,5.467-7.9,5.12-7.9,5.12a8.878,8.878,0,0,1-8.192-5.12v.878a.749.749,0,0,1-.731.731.662.662,0,0,1-.732-.731V127.948a3.871,3.871,0,0,1,.878-2.414l4.023-3.291a.918.918,0,0,1-.512-.8v-2.56a.817.817,0,0,1,.8-.878h8.7c.512,0,.658.658.658.658v.731H41.431a.63.63,0,0,0-.658.658.816.816,0,0,0,.658.878h6.875c.512,0,.512.366.512.366v.439a.576.576,0,0,1-.366.585l3.73,3.218a3.3,3.3,0,0,1,1.024,2.194V140.6a.661.661,0,0,1-.658.658Zm-12.508-2.048a3.809,3.809,0,0,0,3.584,3.584,3.731,3.731,0,0,0,3.73-3.584,3.547,3.547,0,0,0-3.438-3.73,2.26,2.26,0,0,1-2.414-2.268,2.1,2.1,0,0,1,2.194-2.121,2.187,2.187,0,0,1,2.194,2.268.657.657,0,0,0,.732.732c.9-.025.8-1.024.8-1.024-.764-3.54-3.584-3.511-3.584-3.511-3.619,0-3.8,3.73-3.8,3.73.081,3.5,3.657,3.657,3.657,3.657a2.116,2.116,0,0,1,2.194,2.121,2.209,2.209,0,0,1-2.121,2.121,2.054,2.054,0,0,1-2.194-1.975.822.822,0,0,0-.732-.878.806.806,0,0,0-.8.878Zm11.7-11.337a2.183,2.183,0,0,0-.585-1.536L46.4,122.316H41.065l-4.754,4.169a1.779,1.779,0,0,0-.585,1.243v5.047a8.841,8.841,0,0,1,8.265-5.266,8.394,8.394,0,0,1,7.753,5.193v-4.828Zm-15,22.089a2.575,2.575,0,0,0,.054,2.926H33.736a2.266,2.266,0,0,0,.124-2.926Zm-5.33,2.926a1.463,1.463,0,1,1,1.463-1.463,1.463,1.463,0,0,1-1.463,1.463Zm-5.193-30.647a2.121,2.121,0,1,1,2.121-2.121,2.121,2.121,0,0,1-2.121,2.121Zm-4.242,16.823a2.121,2.121,0,1,1,2.121-2.121,2.121,2.121,0,0,1-2.121,2.121Zm4.9,17.92v1.682H17v-1.682a1.1,1.1,0,0,1,1.1-1.1h7.68a1.1,1.1,0,0,1,1.1,1.1Zm12.654-7.022a1.463,1.463,0,1,1-1.463,1.463,1.463,1.463,0,0,1,1.463-1.463Zm2.449,0h3.612a2.575,2.575,0,0,0,.054,2.926h-3.79a2.265,2.265,0,0,0,.123-2.926Zm6.255,0a1.463,1.463,0,1,1-1.463,1.463,1.463,1.463,0,0,1,1.463-1.463Z" fill="#0173c6" fill-rule="evenodd"/>
  </g>
</svg>
