<svg xmlns="http://www.w3.org/2000/svg" width="41.156" height="40.68" viewBox="0 0 41.156 40.68">
  <g id="stock" transform="translate(-10.32 -10.32)">
    <path id="Path_55" data-name="Path 55" d="M384,288h6.7v17.422H384Z" transform="translate(-342.381 -254.422)" fill="#0e7ac9"/>
    <path id="Path_56" data-name="Path 56" d="M216,256h6.7v20.1H216Z" transform="translate(-188.452 -225.102)" fill="#0e7ac9"/>
    <path id="Path_57" data-name="Path 57" d="M48,184h6.7v26.133H48Z" transform="translate(-34.524 -159.133)" fill="#0e7ac9"/>
    <path id="Path_58" data-name="Path 58" d="M47.489,24.432a7.365,7.365,0,1,0-11.23-6.265,7.261,7.261,0,0,0,.9,3.518l-3.578,3.578L24,15.681a.675.675,0,0,0-.951,0L19.842,18.9l-8.57-8.577-.951.951,9.046,9.046a.675.675,0,0,0,.951,0l3.21-3.216L33.1,26.683a.679.679,0,0,0,.951,0l3.86-3.866a7.371,7.371,0,0,0,5.716,2.72,7.273,7.273,0,0,0,2.593-.482l4.3,4.309.952-.951Zm-5.87-2.915v-1.34H44.3v-1.34h-1.34a1.344,1.344,0,0,1-1.34-1.34v-1.34a1.344,1.344,0,0,1,1.34-1.34v-1.34H44.3v1.34h1.34v1.34h-2.68V17.5H44.3a1.344,1.344,0,0,1,1.34,1.34v1.34a1.344,1.344,0,0,1-1.34,1.34v1.34h-1.34v-1.34Z" fill="#80b9e2"/>
  </g>
</svg>
