<svg xmlns="http://www.w3.org/2000/svg" width="40" height="40.028" viewBox="0 0 40 40.028">
  <g id="Group_74" data-name="Group 74" transform="translate(-285 -241)">
    <g id="price-tag" transform="translate(284.991 241)">
      <path id="Path_55" data-name="Path 55" d="M33.083,9.547c.472,3.947,1.157,11.639.37,12.423L16.193,39.231a2.718,2.718,0,0,1-3.847,0L.805,27.69a2.72,2.72,0,0,1,0-3.847L18.067,6.583c.274-.274,3.26-.286,6.617-.111-.019.221-.067.43-.067.657a23.513,23.513,0,0,0,.39,3.37,3.266,3.266,0,1,0,4.568-.852,19.91,19.91,0,0,1-.313-2.518c0-.105.022-.2.031-.307.413.043.821.088,1.206.136C32.781,7.238,32.8,7.233,33.083,9.547Zm-9.2,12.918A7.441,7.441,0,0,0,22.2,19.8l1.31-1.312-1.459-1.457-1.414,1.415c-1.892-1.3-3.844-1.191-5.168.133-1.443,1.443-1.1,3.275-.043,5.4.728,1.474.861,2.323.3,2.888-.581.581-1.518.328-2.368-.52a7.429,7.429,0,0,1-1.815-3.128l-2.19,1.3a8.532,8.532,0,0,0,1.9,3.154L9.829,29.1l1.457,1.459,1.535-1.533c2.024,1.428,4.065,1.236,5.389-.088,1.355-1.358,1.474-2.876.313-5.287-.805-1.728-1-2.577-.522-3.052.418-.418,1.161-.537,2.129.43A6.546,6.546,0,0,1,21.753,23.7Z" transform="translate(0)" fill="#0173c6"/>
    </g>
    <path id="Path_55-2" data-name="Path 55" d="M40.008,7.678a22.2,22.2,0,0,1-2.763,10.683,1.188,1.188,0,0,1-2.03-1.234,20.129,20.129,0,0,0,2.417-9.449c0-3.072-2-5.3-4.751-5.3a4.756,4.756,0,0,0-4.751,4.753,37.573,37.573,0,0,0,.748,4.952,1.188,1.188,0,0,1-2.326.486,39.053,39.053,0,0,1-.8-5.439A7.137,7.137,0,0,1,32.882,0C36.944,0,40.008,3.3,40.008,7.678ZM12.347,39.23C-.257,26.629,13.409,40.293,12.347,39.23Z" transform="translate(284.991 241)" fill="#80b9e2"/>
  </g>
</svg>
