<svg xmlns="http://www.w3.org/2000/svg" width="26.001" height="33.999" viewBox="0 0 26.001 33.999">
  <g id="Group_76" data-name="Group 76" transform="translate(272.001 -428)">
    <g id="Group_74" data-name="Group 74">
      <path id="Path_55" data-name="Path 55" d="M-248.166,462h-21.667A2.15,2.15,0,0,1-272,459.875V430.124A2.151,2.151,0,0,1-269.833,428h13v8.5a2.147,2.147,0,0,0,2.166,2.124H-246v21.253A2.146,2.146,0,0,1-248.166,462Zm-15.167-25.5a2.5,2.5,0,0,1,1.548.5,1.1,1.1,0,0,0,1.525-.151,1.048,1.048,0,0,0-.157-1.5,4.514,4.514,0,0,0-1.832-.847v-1.2a1.074,1.074,0,0,0-1.084-1.061,1.072,1.072,0,0,0-1.084,1.061v1.194a3.873,3.873,0,0,0-3.25,3.588c0,2.051,1.944,3.719,4.334,3.719,1.173,0,2.166.73,2.166,1.592s-.993,1.6-2.166,1.6a2.5,2.5,0,0,1-1.551-.505,1.1,1.1,0,0,0-1.522.151,1.048,1.048,0,0,0,.157,1.5,4.5,4.5,0,0,0,1.832.847v1.2a1.074,1.074,0,0,0,1.084,1.064,1.076,1.076,0,0,0,1.084-1.064v-1.193A3.875,3.875,0,0,0-259,443.4c0-2.048-1.944-3.719-4.334-3.719-1.175,0-2.168-.727-2.168-1.592s.993-1.6,2.168-1.6Zm11.917,6.375h-4.333a1.074,1.074,0,0,0-1.085,1.063A1.074,1.074,0,0,0-255.749,445h4.333a1.074,1.074,0,0,0,1.082-1.063,1.072,1.072,0,0,0-1.082-1.063Zm0,4.25h-4.333a1.074,1.074,0,0,0-1.085,1.063,1.075,1.075,0,0,0,1.085,1.064h4.333a1.074,1.074,0,0,0,1.082-1.064,1.074,1.074,0,0,0-1.082-1.063Zm2,5H-267.75a1.075,1.075,0,0,0-1.084,1.063,1.073,1.073,0,0,0,1.084,1.061h18.333a1.073,1.073,0,0,0,1.084-1.061,1.075,1.075,0,0,0-1.084-1.063Zm0,4H-267.75a1.074,1.074,0,0,0-1.084,1.061,1.074,1.074,0,0,0,1.084,1.063h18.333a1.073,1.073,0,0,0,1.084-1.063,1.074,1.074,0,0,0-1.084-1.061Z" fill="#0173c6" fill-rule="evenodd"/>
    </g>
    <g id="Group_75" data-name="Group 75">
      <path id="Path_56" data-name="Path 56" d="M-254.668,428v8.5H-246l-8.668-8.5Z" fill="#80b9e2"/>
    </g>
  </g>
</svg>
