<svg id="Group_74" data-name="Group 74" xmlns="http://www.w3.org/2000/svg" width="33" height="33" viewBox="0 0 33 33">
  <path id="Path_55" data-name="Path 55" d="M33.905,15.276a2.912,2.912,0,0,0,2.011-.805l2.867,1.413a2.762,2.762,0,0,0-.036.347,2.906,2.906,0,0,0,5.811,0A2.8,2.8,0,0,0,44.267,15l3.889-3.834a2.893,2.893,0,0,0,4.15-2.577,2.785,2.785,0,0,0-.145-.848l3.379-2.5a2.91,2.91,0,0,0,4.514-2.382,2.906,2.906,0,0,0-5.811,0,2.785,2.785,0,0,0,.145.848l-3.379,2.5A2.91,2.91,0,0,0,46.5,8.593a2.8,2.8,0,0,0,.291,1.227L42.9,13.654a2.887,2.887,0,0,0-3.256.518l-2.867-1.413a2.761,2.761,0,0,0,.036-.347,2.906,2.906,0,1,0-2.905,2.864Z" transform="translate(-29.027)" fill="#80b9e2"/>
  <path id="Path_56" data-name="Path 56" d="M32.033,171.509H31V150.972a.969.969,0,0,0-.967-.972H26.168a.969.969,0,0,0-.967.972v20.537H23.268V156.8a.969.969,0,0,0-.967-.972H18.434a.969.969,0,0,0-.967.972v14.706H15.533v-6.932a.969.969,0,0,0-.967-.972H10.7a.969.969,0,0,0-.967.972v6.932H7.8V160.69a.969.969,0,0,0-.967-.972H2.965A.969.969,0,0,0,2,160.69v10.819H.967a.972.972,0,0,0,0,1.944H32.033a.972.972,0,0,0,0-1.944Z" transform="translate(0 -140.452)" fill="#0173c6"/>
</svg>
