<svg xmlns="http://www.w3.org/2000/svg" width="64.046" height="56.29" viewBox="0 0 64.046 56.29">
  <g id="Group_75" data-name="Group 75" transform="translate(-401.59 -290.609)">
    <g id="Group_74" data-name="Group 74" transform="translate(401.59 290.609)">
      <path id="Path_55" data-name="Path 55" d="M252.211,382.93h11.258v3.753H252.211Z" transform="translate(-225.817 -352.909)" fill="#0173c6"/>
      <path id="Path_56" data-name="Path 56" d="M51.959,212.675H41.4v1.876a1.875,1.875,0,0,1-1.876,1.876H24.517a1.875,1.875,0,0,1-1.876-1.876v-1.876H12.086a5.623,5.623,0,0,1-5.34-3.848L0,188.584v40.978a5.635,5.635,0,0,0,5.629,5.629H58.417a5.635,5.635,0,0,0,5.629-5.629V188.585L57.3,208.827A5.622,5.622,0,0,1,51.959,212.675Z" transform="translate(0 -178.901)" fill="#0173c6"/>
      <path id="Path_57" data-name="Path 57" d="M67.149,96.055H52.138a5.635,5.635,0,0,0-5.629,5.629v1.876H30.849l7.077,21.233a1.876,1.876,0,0,0,1.781,1.283H50.262V124.2a1.876,1.876,0,0,1,1.876-1.876H67.149a1.876,1.876,0,0,1,1.876,1.876v1.876H79.58a1.876,1.876,0,0,0,1.781-1.283l7.077-21.233H72.778v-1.876A5.636,5.636,0,0,0,67.149,96.055ZM50.262,103.56v-1.876a1.877,1.877,0,0,1,1.876-1.876H67.149a1.877,1.877,0,0,1,1.876,1.876v1.876Z" transform="translate(-27.621 -96.055)" fill="#0173c6" opacity="0.5"/>
    </g>
  </g>
</svg>
