<svg xmlns="http://www.w3.org/2000/svg" width="64.001" height="65.001" viewBox="0 0 64.001 65.001">
  <g id="Group_76" data-name="Group 76" transform="translate(-266.999 -357.997)">
    <g id="Group_74" data-name="Group 74">
      <path id="Path_55" data-name="Path 55" d="M325.3,365.237V373.1a6.445,6.445,0,0,1-6.481,6.418h-4.089a6.477,6.477,0,0,1-6.519-6.418v-7.891H289.786V373.1a6.478,6.478,0,0,1-6.519,6.418h-4.089A6.444,6.444,0,0,1,272.7,373.1v-7.862a5.871,5.871,0,0,0-5.7,5.822v46.08A5.875,5.875,0,0,0,272.867,423h52.267A5.882,5.882,0,0,0,331,417.139v-46.08a5.871,5.871,0,0,0-5.7-5.822Zm-1.9,49.033a2.527,2.527,0,0,1-2.537,2.517H277.019a2.528,2.528,0,0,1-2.536-2.517v-23.8a2.529,2.529,0,0,1,2.536-2.519h43.849a2.529,2.529,0,0,1,2.537,2.519v23.8Z" fill="#0173c6"/>
    </g>
    <g id="Group_75" data-name="Group 75">
      <path id="Path_56" data-name="Path 56" d="M288.636,400.483h-5.185a1.48,1.48,0,0,1-1.484-1.477v-5.147a1.479,1.479,0,0,1,1.484-1.474h5.185a1.481,1.481,0,0,1,1.486,1.474v5.147a1.482,1.482,0,0,1-1.486,1.477Zm12.956,0h-5.184a1.482,1.482,0,0,1-1.486-1.477v-5.147a1.481,1.481,0,0,1,1.486-1.474h5.184a1.48,1.48,0,0,1,1.485,1.474v5.147a1.482,1.482,0,0,1-1.485,1.477Zm12.957,0h-5.184a1.482,1.482,0,0,1-1.486-1.477v-5.147a1.481,1.481,0,0,1,1.486-1.474h5.184a1.48,1.48,0,0,1,1.485,1.474v5.147a1.482,1.482,0,0,1-1.485,1.477Zm-25.913,12.866h-5.185a1.479,1.479,0,0,1-1.484-1.474v-5.149a1.478,1.478,0,0,1,1.484-1.474h5.185a1.48,1.48,0,0,1,1.486,1.474v5.149a1.481,1.481,0,0,1-1.486,1.474Zm12.956,0h-5.184a1.481,1.481,0,0,1-1.486-1.474v-5.149a1.48,1.48,0,0,1,1.486-1.474h5.184a1.48,1.48,0,0,1,1.485,1.474v5.149a1.48,1.48,0,0,1-1.485,1.474Zm12.957,0h-5.184a1.481,1.481,0,0,1-1.486-1.474v-5.149a1.48,1.48,0,0,1,1.486-1.474h5.184a1.48,1.48,0,0,1,1.485,1.474v5.149a1.48,1.48,0,0,1-1.485,1.474ZM283.207,375.3h-4.045a2.213,2.213,0,0,1-2.222-2.206V360.206A2.216,2.216,0,0,1,279.162,358h4.045a2.218,2.218,0,0,1,2.224,2.209V373.1a2.215,2.215,0,0,1-2.224,2.206Zm35.518,0h-4.044a2.214,2.214,0,0,1-2.222-2.206V360.206A2.217,2.217,0,0,1,314.681,358h4.044a2.216,2.216,0,0,1,2.223,2.209V373.1a2.213,2.213,0,0,1-2.223,2.206Z" fill="#0173c6" opacity="0.5"/>
    </g>
  </g>
</svg>
