<svg xmlns="http://www.w3.org/2000/svg" width="125" height="84.001" viewBox="0 0 125 84.001">
  <g id="Group_75" data-name="Group 75" transform="translate(-243 -354)">
    <g id="Group_74" data-name="Group 74">
      <path id="Path_55" data-name="Path 55" d="M350.364,376.222c-11.815-15.006-19.841-15.335-19.841-15.335,13.411,8.094,17.636,18.84,17.636,18.84-9.128.424-13.228,9.639-13.228,9.639-.578-22.725-7.494-27.164-7.494-27.164,5.084,8.134,4.409,30.231,4.409,30.231-6.578-3.772-15.432,1.315-15.432,1.315,13.743-14.846,10.14-30.231,10.14-30.231-2.551,22.414-11.022,28.039-11.022,28.039l-9.916,45.412V438l-.113-.518-.113.518v-1.033l-9.916-45.415S287,385.928,284.451,363.51c0,0-3.6,15.387,10.142,30.233,0,0-8.856-5.086-15.434-1.313,0,0-.677-22.1,4.409-30.234,0,0-6.916,4.44-7.5,27.167,0,0-4.1-9.218-13.228-9.641,0,0,4.225-10.746,17.638-18.841,0,0-8.028.328-19.844,15.337,0,0-1.217-12.368-17.638-16.652,0,0,16.449-11.6,44.1-1.313,0,0-3.486,20.767,11.9,23.223,0,0,5.213.083,6.389-7.413l.113-.852.113.857c1.178,7.5,6.389,7.412,6.389,7.412,15.389-2.454,11.9-23.221,11.9-23.221,27.643-10.281,44.09,1.313,44.09,1.313-16.42,4.285-17.636,16.65-17.636,16.65Z" fill="#fff" fill-rule="evenodd"/>
    </g>
  </g>
</svg>
